<svg width="138" height="44" viewBox="0 0 138 44" fill="none" xmlns="http://www.w3.org/2000/svg">
<path d="M4.57479 31.2186C2.66562 30.935 1.42609 30.0702 0.856188 28.6241C0.286287 27.1497 0.400267 25.2924 1.19813 23.0524L6.84014 7.10286C7.35305 5.62841 7.9372 4.36663 8.59258 3.3175C9.27646 2.26838 10.1171 1.46027 11.1144 0.893173C12.1402 0.326079 13.4082 0.0425315 14.9185 0.0425315C17.1981 0.0425315 18.9078 0.666336 20.0476 1.91394C21.2159 3.16155 22.1847 4.89119 22.9541 7.10286L28.5533 23.0524C29.3512 25.2924 29.4937 27.1497 28.9808 28.6241C28.4963 30.0702 27.2853 30.935 25.3476 31.2186C23.7804 31.417 22.4127 31.2327 21.2444 30.6656C20.1046 30.0985 19.4207 29.177 19.1927 27.9011C19.0218 27.0504 18.9933 26.3415 19.1072 25.7744C19.2497 25.2074 19.3779 24.7537 19.4919 24.4134C19.5774 24.1299 19.5774 23.8605 19.4919 23.6053C19.4349 23.3218 19.2212 23.18 18.8508 23.18H10.9007C10.5302 23.18 10.3023 23.3218 10.2168 23.6053C10.1598 23.8605 10.1883 24.1299 10.3023 24.4134C10.4163 24.7537 10.5302 25.2074 10.6442 25.7744C10.7582 26.3415 10.744 27.0504 10.6015 27.9011C10.3735 29.177 9.70389 30.0985 8.59258 30.6656C7.48128 31.2327 6.14201 31.417 4.57479 31.2186ZM19.1927 16.4386L15.8161 10.2928C15.7591 10.0092 15.6593 9.79656 15.5169 9.65479C15.4029 9.48466 15.2034 9.39959 14.9185 9.39959C14.6335 9.39959 14.4198 9.48466 14.2773 9.65479C14.1634 9.79656 14.0636 10.0092 13.9781 10.2928L11.1144 18.6715L19.1927 16.4386Z" fill="#00B5E3"/>
<path d="M42.4523 31.3462C39.4034 31.3462 36.8246 30.6798 34.7159 29.3471C32.6073 28.0145 31.0116 26.1714 29.9288 23.818C28.846 21.4645 28.3046 18.7567 28.3046 15.6943C28.3046 12.6604 28.846 9.96669 29.9288 7.61325C31.0116 5.23145 32.6073 3.37421 34.7159 2.04154C36.8246 0.680513 39.4034 0 42.4523 0C45.5013 0 48.0659 0.680513 50.146 2.04154C52.2546 3.37421 53.8503 5.23145 54.9331 7.61325C56.016 9.96669 56.5574 12.6604 56.5574 15.6943C56.5574 18.7567 56.016 21.4645 54.9331 23.818C53.8503 26.1714 52.2546 28.0145 50.146 29.3471C48.0659 30.6798 45.5013 31.3462 42.4523 31.3462ZM33.6901 15.0138C33.6901 15.8928 33.9038 16.7293 34.3313 17.5232C34.7587 18.2888 35.5993 18.9126 36.8531 19.3946C38.1068 19.8483 39.9733 20.0751 42.4523 20.0751C44.9314 20.0751 46.7836 19.8483 48.0089 19.3946C49.2626 18.9126 50.1032 18.2888 50.5307 17.5232C50.9581 16.7293 51.1718 15.8928 51.1718 15.0138C51.1718 14.1065 50.9581 13.2984 50.5307 12.5895C50.1032 11.8523 49.2626 11.271 48.0089 10.8457C46.7836 10.392 44.9314 10.1652 42.4523 10.1652C39.9733 10.1652 38.1068 10.392 36.8531 10.8457C35.5993 11.271 34.7587 11.8523 34.3313 12.5895C33.9038 13.2984 33.6901 14.1065 33.6901 15.0138Z" fill="#00B5E3"/>
<path d="M68.7136 0.255192C72.1045 0.255192 74.8685 0.893173 77.0057 2.16914C79.1713 3.41674 80.767 5.20309 81.7928 7.52818C82.8471 9.82491 83.3743 12.5611 83.3743 15.7369C83.3743 21.0676 82.2202 24.9805 79.9121 27.4757C77.604 29.9709 74.0707 31.2186 69.312 31.2186H67.4313C66.0351 31.2186 64.7385 31.0768 63.5418 30.7932C62.345 30.5097 61.2907 29.9993 60.3788 29.2621C59.467 28.4965 58.7546 27.4332 58.2417 26.0722C57.7288 24.7111 57.4723 22.9532 57.4723 20.7982C57.4723 18.785 57.743 17.0412 58.2844 15.5667C58.8543 14.0923 59.7768 13.0432 60.5461 12.1642C61.3155 11.2852 62.0171 10.9732 62.6833 10.5904L65.3547 9.61225H61.4474C60.1366 9.61225 59.0965 9.20111 58.3272 8.37882C57.5863 7.52818 57.2016 6.39399 57.1731 4.97625C57.1446 3.55852 57.5151 2.42433 58.2844 1.57369C59.0823 0.69469 60.1366 0.255192 61.4474 0.255192H68.7136ZM65.6361 20.2453C65.6361 20.8407 65.7644 21.2519 66.0208 21.4787C66.3058 21.7055 66.7189 21.819 67.2604 21.819H69.5685C71.0217 21.819 72.1473 21.5071 72.9451 20.8833C73.743 20.2595 74.2986 19.4655 74.6121 18.5015C74.954 17.509 75.125 16.4599 75.125 15.3541C75.125 14.2483 74.954 13.1849 74.6121 12.1642C74.2986 11.1434 73.743 10.3069 72.9451 9.65479C72.1473 9.00263 71.0217 8.67655 69.5685 8.67655H67.2604C66.7189 8.67655 66.3058 8.80414 66.0208 9.05934C65.7644 9.28617 65.6361 9.71149 65.6361 10.3353V20.2453Z" fill="#00B5E3"/>
<path d="M89.8341 31.1335C88.1244 31.1335 86.8136 30.6656 85.9018 29.7299C85.0184 28.7659 84.5768 27.5324 84.5768 26.0296C84.5768 25.1506 84.7477 24.3851 85.0897 23.7329C85.4601 23.0807 85.9018 22.4995 86.4147 21.9891C86.9276 21.4787 87.4263 20.9967 87.9107 20.543L97.4116 10.5905L101.033 7.10286L89.4067 9.69732C88.0959 9.69732 87.0131 9.30035 86.1582 8.50642C85.3319 7.68413 84.8902 6.54994 84.8332 5.10385C84.8047 3.68611 85.2321 2.53775 86.1155 1.65875C86.9988 0.779755 88.0959 0.340257 89.4067 0.340257H103.64C105.264 0.340257 106.475 0.751401 107.273 1.57369C108.071 2.39597 108.47 3.55852 108.47 5.06132C108.47 6.1388 108.171 7.15957 107.572 8.12363C106.974 9.05933 106.304 9.88162 105.563 10.5905L94.6212 21.3086C94.2793 21.6488 94.1226 22.0174 94.1511 22.4144C94.1796 22.783 94.3505 23.0666 94.664 23.2651C95.0059 23.4635 95.4333 23.4635 95.9463 23.2651C96.8866 22.8681 97.7699 22.4569 98.5963 22.0316C99.4227 21.6063 100.235 21.2519 101.033 20.9683C101.859 20.6564 102.714 20.5005 103.597 20.5005C105.535 20.5005 106.988 21.025 107.957 22.0742C108.926 23.0949 109.41 24.3567 109.41 25.8595C109.41 27.3623 108.926 28.6241 107.957 29.6449C106.988 30.6373 105.535 31.1335 103.597 31.1335H89.8341Z" fill="#00B5E3"/>
<path d="M115.274 31.2186C113.849 31.2186 112.766 30.7791 112.025 29.9001C111.285 29.0211 110.914 27.8443 110.914 26.3699V6.42235C110.914 4.9479 111.185 3.757 111.726 2.84965C112.296 1.91394 113.023 1.23343 113.906 0.808109C114.818 0.382789 115.801 0.170129 116.855 0.170129C118.423 0.170129 119.748 0.581272 120.83 1.40356C121.913 2.22585 122.754 3.67194 123.352 5.74183L127.968 21.4362H128.652V5.10385C128.652 3.60105 129.037 2.42433 129.806 1.57369C130.576 0.69469 131.673 0.255192 133.098 0.255192C134.579 0.255192 135.676 0.69469 136.389 1.57369C137.13 2.42433 137.5 3.60105 137.5 5.10385V24.3284C137.5 26.7102 136.973 28.4681 135.919 29.6023C134.864 30.7365 133.382 31.3036 131.473 31.3036C129.536 31.3036 128.025 30.7932 126.943 29.7725C125.86 28.7517 125.033 27.2489 124.464 25.2641L121.429 14.9288C121.372 14.6452 121.258 14.39 121.087 14.1632C120.944 13.908 120.745 13.7804 120.488 13.7804C120.175 13.7804 119.961 13.908 119.847 14.1632C119.733 14.39 119.676 14.6452 119.676 14.9288V26.3699C119.676 27.8443 119.306 29.0211 118.565 29.9001C117.824 30.7791 116.727 31.2186 115.274 31.2186Z" fill="#00B5E3"/>
<path d="M44.1062 43.9993C42.4251 44.0199 41.109 43.5965 40.1578 42.7291C39.2064 41.8333 38.7215 40.6483 38.7032 39.1739C38.6846 37.6713 39.1539 36.4462 40.1111 35.4986C41.0683 34.5511 42.3589 34.0674 43.983 34.0475C45.5786 34.028 46.8523 34.4803 47.8042 35.4044C48.7842 36.2998 49.2835 37.4988 49.3021 39.0015C49.3203 40.4758 48.8792 41.6722 47.9786 42.5907C47.0781 43.5092 45.7873 43.9787 44.1062 43.9993Z" fill="#00B5E3"/>
</svg>
