<svg width="34" height="34" viewBox="0 0 34 34" fill="none" xmlns="http://www.w3.org/2000/svg">
<path d="M11.5821 3.3947C11.1931 3.78382 10.9746 4.31151 10.9746 4.86173C10.9746 5.41194 11.1931 5.93963 11.5821 6.32875L21.8534 16.6L11.5821 26.8713C11.2042 27.2626 10.995 27.7868 10.9997 28.3308C11.0045 28.8749 11.2227 29.3953 11.6074 29.78C11.9921 30.1648 12.5126 30.383 13.0566 30.3877C13.6007 30.3924 14.1248 30.1833 14.5162 29.8053L26.2545 18.067C26.6435 17.6779 26.862 17.1502 26.862 16.6C26.862 16.0498 26.6435 15.5221 26.2545 15.133L14.5162 3.3947C14.1271 3.0057 13.5994 2.78717 13.0492 2.78717C12.499 2.78717 11.9713 3.0057 11.5821 3.3947Z" fill="#19002D"/>
</svg>
